<svg width="505" height="470" viewBox="0 0 505 470" fill="none" xmlns="http://www.w3.org/2000/svg">
<g clip-path="url(#clip0_723_165)">
<path d="M181 26C226.54 26 272.08 26 319 26C319 35.9 319 45.8 319 56C314.38 56 309.76 56 305 56C305 67.22 305 78.44 305 90C317.54 90 330.08 90 343 90C343 95.28 343 100.56 343 106C353.23 106 363.46 106 374 106C374 101.05 374 96.1 374 91C385.55 91 397.1 91 409 91C409 95.95 409 100.9 409 106C413.95 106 418.9 106 424 106C424 122.83 424 139.66 424 157C419.05 157 414.1 157 409 157C409 162.61 409 168.22 409 174C402.4 174 395.8 174 389 174C389 202.71 389 231.42 389 261C384.05 261 379.1 261 374 261C374 266.61 374 272.22 374 278C368.39 278 362.78 278 357 278C357 272.06 357 266.12 357 260C362.28 260 367.56 260 373 260C373 241.85 373 223.7 373 205C367.72 205 362.44 205 357 205C357 210.94 357 216.88 357 223C352.38 223 347.76 223 343 223C343 206.83 343 190.66 343 174C347.62 174 352.24 174 357 174C357.33 176.31 357.66 178.62 358 181C358 178.36 358 175.72 358 173C356.723 173.009 356.723 173.009 355.42 173.018C344.626 173.058 333.851 172.805 323.062 172.5C321.3 172.452 319.538 172.403 317.775 172.355C313.517 172.239 309.258 172.12 305 172C305 166.72 305 161.44 305 156C300.05 156 295.1 156 290 156C290 149.07 290 142.14 290 135C284.06 135 278.12 135 272 135C272 158.76 272 182.52 272 207C268.04 207 264.08 207 260 207C260 217.23 260 227.46 260 238C247.625 239.125 247.625 239.125 242.457 239.098C241.469 239.095 240.482 239.093 239.464 239.09C238.259 239.081 237.054 239.072 235.812 239.062C229.965 239.032 229.965 239.032 224 239C224 252.2 224 265.4 224 279C239.84 279 255.68 279 272 279C272 273.06 272 267.12 272 261C277.94 261 283.88 261 290 261C290 231.96 290 202.92 290 173C294.95 173 299.9 173 305 173C305 189.83 305 206.66 305 224C317.54 224 330.08 224 343 224C343 228.95 343 233.9 343 239C337.72 239 332.44 239 327 239C327 251.87 327 264.74 327 278C319.74 278 312.48 278 305 278C305 278.66 305 279.32 305 280C306.228 279.928 307.457 279.856 308.723 279.781C325.157 278.891 341.548 278.904 358 279C358 284.28 358 289.56 358 295C340.84 295 323.68 295 306 295C306 304.57 306 314.14 306 324C328.11 324 350.22 324 373 324C373 340.5 373 357 373 374C389.5 374 406 374 423 374C423 392.15 423 410.3 423 429C441.15 429 459.3 429 478 429C478 438.9 478 448.8 478 459C324.88 459 171.76 459 14 459C14 449.1 14 439.2 14 429C31.82 429 49.64 429 68 429C68 410.85 68 392.7 68 374C84.83 374 101.66 374 119 374C119 357.5 119 341 119 324C123.95 324 128.9 324 134 324C134 290.67 134 257.34 134 223C138.62 223 143.24 223 148 223C148 217.72 148 212.44 148 207C153.94 207 159.88 207 166 207C166 201.72 166 196.44 166 191C160.39 191 154.78 191 149 191C149 184.73 149 178.46 149 172C143.72 172 138.44 172 133 172C133 160.12 133 148.24 133 136C128.38 136 123.76 136 119 136C119 116.2 119 96.4 119 76C123.95 76 128.9 76 134 76C134 69.73 134 63.46 134 57C138.95 57 143.9 57 149 57C149 51.72 149 46.44 149 41C159.56 41 170.12 41 181 41C181 36.05 181 31.1 181 26Z" fill="#3C1D0B"/>
<path d="M181 26C226.54 26 272.08 26 319 26C319 35.9 319 45.8 319 56C314.38 56 309.76 56 305 56C305 67.22 305 78.44 305 90C317.54 90 330.08 90 343 90C343 95.28 343 100.56 343 106C353.23 106 363.46 106 374 106C374 101.05 374 96.1 374 91C385.55 91 397.1 91 409 91C409 95.95 409 100.9 409 106C413.95 106 418.9 106 424 106C424 122.83 424 139.66 424 157C419.05 157 414.1 157 409 157C409 162.61 409 168.22 409 174C402.4 174 395.8 174 389 174C389 202.71 389 231.42 389 261C384.05 261 379.1 261 374 261C374 266.61 374 272.22 374 278C368.39 278 362.78 278 357 278C357 272.06 357 266.12 357 260C362.28 260 367.56 260 373 260C373 241.85 373 223.7 373 205C367.72 205 362.44 205 357 205C357 210.94 357 216.88 357 223C352.38 223 347.76 223 343 223C343 206.83 343 190.66 343 174C347.62 174 352.24 174 357 174C357.33 176.31 357.66 178.62 358 181C358 178.36 358 175.72 358 173C353.05 173 348.1 173 343 173C343 167.72 343 162.44 343 157C333.1 157 323.2 157 313 157C313 140.17 313 123.34 313 106C322.57 106 332.14 106 342 106C342 101.05 342 96.1 342 91C329.79 91 317.58 91 305 91C305 95.95 305 100.9 305 106C286.52 106 268.04 106 249 106C249 122.17 249 138.34 249 155C251.64 155 254.28 155 257 155C258 156 258 156 258.12 158.056C258.118 158.96 258.116 159.864 258.114 160.795C258.114 161.83 258.113 162.866 258.113 163.932C258.108 165.029 258.103 166.125 258.098 167.254C258.097 168.255 258.096 169.257 258.095 170.289C258.089 174.047 258.076 177.805 258.063 181.562C258.042 189.957 258.021 198.351 258 207C232.59 207 207.18 207 181 207C181 195.78 181 184.56 181 173C185.29 173 189.58 173 194 173C194 150.89 194 128.78 194 106C189.38 106 184.76 106 180 106C180 128.11 180 150.22 180 173C175.71 173 171.42 173 167 173C167 167.39 167 161.78 167 156C160.73 156 154.46 156 148 156C148 144.12 148 132.24 148 120C153.94 120 159.88 120 166 120C166 115.38 166 110.76 166 106C160.06 106 154.12 106 148 106C147.975 99.3146 147.957 92.6293 147.945 85.9438C147.94 83.6766 147.933 81.4093 147.925 79.1421C147.877 66.3751 148.014 53.732 149 41C159.56 41 170.12 41 181 41C181 36.05 181 31.1 181 26Z" fill="#442C12"/>
<path d="M210 347C236.73 347 263.46 347 291 347C291 356.24 291 365.48 291 375C308.16 375 325.32 375 343 375C343 388.2 343 401.4 343 415C357.85 415 372.7 415 388 415C388 428.2 388 441.4 388 455C394.6 455 401.2 455 408 455C408 456.32 408 457.64 408 459C295.8 459 183.6 459 68 459C68 457.35 68 455.7 68 454C79.88 454 91.76 454 104 454C104 441.13 104 428.26 104 415C118.85 415 133.7 415 149 415C149 401.8 149 388.6 149 375C169.13 375 189.26 375 210 375C210 365.76 210 356.52 210 347Z" fill="#90492A"/>
<path d="M248 42C266.81 42 285.62 42 305 42C305 57.84 305 73.68 305 90C317.54 90 330.08 90 343 90C343 95.28 343 100.56 343 106C353.23 106 363.46 106 374 106C374 101.05 374 96.1 374 91C385.55 91 397.1 91 409 91C409 95.95 409 100.9 409 106C413.95 106 418.9 106 424 106C424 122.83 424 139.66 424 157C419.05 157 414.1 157 409 157C409 162.61 409 168.22 409 174C402.4 174 395.8 174 389 174C389 202.71 389 231.42 389 261C384.05 261 379.1 261 374 261C374 266.61 374 272.22 374 278C368.39 278 362.78 278 357 278C357 272.06 357 266.12 357 260C362.28 260 367.56 260 373 260C373 241.85 373 223.7 373 205C367.72 205 362.44 205 357 205C357 210.94 357 216.88 357 223C352.38 223 347.76 223 343 223C343 206.83 343 190.66 343 174C347.62 174 352.24 174 357 174C357.33 176.31 357.66 178.62 358 181C358 178.36 358 175.72 358 173C353.05 173 348.1 173 343 173C343 167.72 343 162.44 343 157C333.1 157 323.2 157 313 157C313 140.17 313 123.34 313 106C322.57 106 332.14 106 342 106C342 101.05 342 96.1 342 91C329.79 91 317.58 91 305 91C305 95.95 305 100.9 305 106C286.52 106 268.04 106 249 106C249 100.72 249 95.44 249 90C240.75 90 232.5 90 224 90C224 85.05 224 80.1 224 75C227.959 74.9463 231.916 74.9065 235.875 74.875C237.003 74.8582 238.131 74.8415 239.293 74.8242C240.369 74.8178 241.446 74.8113 242.555 74.8047C243.55 74.7942 244.545 74.7837 245.57 74.7729C248 75 248 75 250 77C250 81.29 250 85.58 250 90C267.82 90 285.64 90 304 90C304 79.11 304 68.22 304 57C299.71 57 295.42 57 291 57C291 62.94 291 68.88 291 75C280.11 75 269.22 75 258 75C258 68.73 258 62.46 258 56C255.03 56 252.06 56 249 56C248 52 248 52 248 42Z" fill="#3D6E63"/>
<path d="M134 57C138.62 57 143.24 57 148 57C148 73.17 148 89.34 148 106C153.94 106 159.88 106 166 106C166 110.62 166 115.24 166 120C160.06 120 154.12 120 148 120C148 131.88 148 143.76 148 156C154.27 156 160.54 156 167 156C167 161.61 167 167.22 167 173C171.29 173 175.58 173 180 173C180 150.89 180 128.78 180 106C184.62 106 189.24 106 194 106C194 128.11 194 150.22 194 173C189.71 173 185.42 173 181 173C181 184.22 181 195.44 181 207C206.41 207 231.82 207 258 207C257.67 190.17 257.34 173.34 257 156C254.36 155.67 251.72 155.34 249 155C249 138.83 249 122.66 249 106C267.48 106 285.96 106 305 106C305 101.05 305 96.1 305 91C317.21 91 329.42 91 342 91C342 95.95 342 100.9 342 106C332.43 106 322.86 106 313 106C313 122.83 313 139.66 313 157C322.9 157 332.8 157 343 157C343 161.95 343 166.9 343 172C330.46 172 317.92 172 305 172C305 166.72 305 161.44 305 156C300.05 156 295.1 156 290 156C290 149.07 290 142.14 290 135C284.06 135 278.12 135 272 135C272 158.76 272 182.52 272 207C268.04 207 264.08 207 260 207C260 217.23 260 227.46 260 238C251.75 238 243.5 238 235 238C235 233.38 235 228.76 235 224C206.62 224 178.24 224 149 224C149 218.72 149 213.44 149 208C154.61 208 160.22 208 166 208C166 202.39 166 196.78 166 191C160.39 191 154.78 191 149 191C149 184.73 149 178.46 149 172C143.72 172 138.44 172 133 172C133 160.12 133 148.24 133 136C128.38 136 123.76 136 119 136C119 116.2 119 96.4 119 76C123.95 76 128.9 76 134 76C134 69.73 134 63.46 134 57Z" fill="#060604"/>
<path d="M272 135C277.94 135 283.88 135 290 135C290 141.93 290 148.86 290 156C294.95 156 299.9 156 305 156C305 161.28 305 166.56 305 172C307.569 171.988 310.138 171.977 312.785 171.965C315.327 171.957 317.869 171.951 320.411 171.945C322.152 171.94 323.893 171.933 325.633 171.925C336.473 171.871 347.194 172.093 358 173C358.33 176.63 358.66 180.26 359 184C357 182 357 182 356.805 180.055C356.87 178.036 356.935 176.018 357 174C352.38 174 347.76 174 343 174C343 190.17 343 206.34 343 223C347.62 223 352.24 223 357 223C357 217.06 357 211.12 357 205C362.28 205 367.56 205 373 205C373 223.15 373 241.3 373 260C367.72 260 362.44 260 357 260C357.33 266.27 357.66 272.54 358 279C340.325 279.644 322.69 280.167 305 280C305 279.34 305 278.68 305 278C312.26 278 319.52 278 327 278C327 265.13 327 252.26 327 239C332.28 239 337.56 239 343 239C343 234.05 343 229.1 343 224C330.46 224 317.92 224 305 224C305 207.17 305 190.34 305 173C300.05 173 295.1 173 290 173C290 202.04 290 231.08 290 261C284.06 261 278.12 261 272 261C272 266.94 272 272.88 272 279C256.16 279 240.32 279 224 279C224 265.8 224 252.6 224 239C235.88 238.67 247.76 238.34 260 238C260 227.77 260 217.54 260 207C263.96 207 267.92 207 272 207C272 183.24 272 159.48 272 135Z" fill="#F2BF9A"/>
<path d="M103 76C118 76 118 76 119 77C119.094 78.8412 119.117 80.686 119.114 82.5295C119.113 84.3013 119.113 84.3013 119.113 86.1088C119.108 87.3942 119.103 88.6796 119.098 90.0039C119.096 91.3121 119.095 92.6202 119.093 93.968C119.09 97.4516 119.08 100.935 119.069 104.419C119.058 107.971 119.054 111.524 119.049 115.076C119.038 122.051 119.02 129.025 119 136C123.62 136 128.24 136 133 136C133 147.88 133 159.76 133 172C138.28 172 143.56 172 149 172C149 178.27 149 184.54 149 191C154.61 191 160.22 191 166 191C166 196.28 166 201.56 166 207C160.06 207 154.12 207 148 207C148 212.28 148 217.56 148 223C143.38 223 138.76 223 134 223C134 256.33 134 289.66 134 324C129.05 324 124.1 324 119 324C119 340.5 119 357 119 374C101.84 374 84.68 374 67 374C67 391.82 67 409.64 67 428C49.51 428 32.02 428 14 428C14 423.38 14 418.76 14 414C26.87 414 39.74 414 53 414C53 395.85 53 377.7 53 359C69.5 359 86 359 103 359C103 343.16 103 327.32 103 311C107.95 311 112.9 311 118 311C118 276.35 118 241.7 118 206C122.95 206 127.9 206 133 206C133 201.05 133 196.1 133 191C128.38 191 123.76 191 119 191C119 176.81 119 162.62 119 148C113.72 148 108.44 148 103 148C103 124.24 103 100.48 103 76Z" fill="#FBFCFB"/>
<path d="M290 173C294.95 173 299.9 173 305 173C305 189.83 305 206.66 305 224C317.54 224 330.08 224 343 224C343 228.95 343 233.9 343 239C337.72 239 332.44 239 327 239C327 251.87 327 263.74 327 277C319.74 277 312.48 277 305 277C305 277.66 305 279.32 305 280C306.843 279.892 306.843 279.892 308.723 279.781C325.157 278.891 341.548 278.904 358 279C358 284.28 358 289.56 358 295C340.84 295 323.68 295 306 295C306 304.57 306 314.14 306 324C328.11 324 350.22 324 373 324C373 324.33 373 324.66 373 325C350.56 325 328.12 325 305 325C305 315.1 305 305.2 305 295C300.05 295 295.1 295 290 295C290 304.57 290 314.14 290 324C284.06 324 278.12 324 272 324C272 319.71 272 315.42 272 311C241.64 311 211.28 311 180 311C180 315.62 180 320.24 180 325C169.44 325 158.88 325 148 325C148 315.43 148 305.86 148 296C184.96 296 221.92 296 260 296C260 290.39 260 284.78 260 279C263.96 279 267.92 279 272 279C272 273.06 272 267.12 272 261C277.94 261 283.88 261 290 261C290 231.96 290 202.92 290 173Z" fill="#3B6D48"/>
<path d="M305 57C309.62 57 314.24 57 319 57C319 62.94 319 68.88 319 75C323.349 74.9826 323.349 74.9826 327.785 74.9648C359.534 74.869 391.259 75.3178 423 76C423 80.95 423 85.9 423 91C428.28 91 433.56 91 439 91C439 118.06 439 145.12 439 173C434.05 173 429.1 173 424 173C424 178.94 424 184.88 424 191C418.72 191 413.44 191 408 191C408 213.77 408 236.54 408 260C401.73 260 395.46 260 389 260C389 231.62 389 203.24 389 174C395.6 174 402.2 174 409 174C409 168.39 409 162.78 409 157C413.95 157 418.9 157 424 157C424 140.17 424 123.34 424 106C419.05 106 414.1 106 409 106C409 101.05 409 96.1 409 91C397.45 91 385.9 91 374 91C374 95.95 374 100.9 374 106C363.77 106 353.54 106 343 106C343 100.72 343 95.44 343 90C330.46 90 317.92 90 305 90C305 79.11 305 68.22 305 57Z" fill="#FCFDFD"/>
<path d="M306 296C323.16 296 340.32 296 358 296C358 300.95 358 305.9 358 311C367.9 311 377.8 311 388 311C388 326.84 388 342.68 388 359C404.83 359 421.66 359 439 359C439 377.48 439 395.96 439 415C457.15 415 475.3 415 494 415C494.031 423.941 494.031 423.941 494.062 433.062C494.072 434.93 494.081 436.798 494.09 438.723C494.093 440.223 494.096 441.723 494.098 443.223C494.103 443.986 494.108 444.749 494.113 445.535C494.113 446.661 494.113 446.661 494.114 447.809C494.116 448.451 494.118 449.092 494.12 449.754C493.954 452.854 494.062 456 494.062 459C489.113 459 483.1 459 478 459C478 449.1 478 439.2 478 429C459.85 429 441.7 429 423 429C423 410.85 423 392.7 423 374C406.5 374 390 374 373 374C373 357.5 373 341 373 324C350.89 324 328.78 324 306 324C306 314.76 306 305.52 306 296Z" fill="#FCFCFB"/>
<path d="M305 91C317.21 91 329.42 91 342 91C342 95.95 342 100.9 342 106C332.43 106 322.86 106 313 106C313 122.83 313 139.66 313 157C322.9 157 332.8 157 343 157C343 161.95 343 166.9 343 172C330.46 172 317.92 172 305 172C305 166.72 305 161.44 305 156C300.05 156 295.1 156 290 156C290 149.07 290 142.14 290 135C284.06 135 278.12 135 272 135C272 158.43 272 181.86 272 206C267.71 206 263.42 206 259 206C259 189.5 259 173 259 156C255.7 155.67 252.4 155.34 249 155C249 138.83 249 122.66 249 106C267.48 106 285.96 106 305 106C305 101.05 305 96.1 305 91Z" fill="#020301"/>
<path d="M209 90C213.62 90 218.24 90 223 90C223 95.28 223 100.56 223 106C218.71 106 214.42 106 210 106C210 122.5 210 139 210 156C214.29 156 218.58 156 223 156C223 161.61 223 167.22 223 173C231.58 173 240.16 173 249 173C249 167.39 249 161.78 249 156C251.97 156 254.94 156 258 156C258 172.83 258 189.66 258 207C232.59 207 207.18 207 181 207C181 195.78 181 184.56 181 173C185.29 173 189.58 173 194 173C194 150.89 194 128.78 194 106C189.38 106 184.76 106 180 106C180 101.05 180 96.1 180 91C184.95 91 189.9 91 195 91C195 95.95 195 100.9 195 106C199.62 106 204.24 106 209 106C209 100.72 209 95.44 209 90Z" fill="#F1BE97"/>
<path d="M148 207C153.94 207 159.88 207 166 207C166 207.33 166 207.66 166 208C160.39 208 154.78 208 149 208C149 213.28 149 218.56 149 224C177.38 224 205.76 224 235 224C235 228.62 235 233.24 235 238C239.62 238 244.24 238 249 238C249 238.33 249 238.66 249 239C240.75 239 232.5 239 224 239C224 252.2 224 265.4 224 279C198.92 279 173.84 279 148 279C148 260.85 148 242.7 148 224C143.38 224 138.76 224 134 224C134 223.67 134 223.34 134 223C138.62 223 143.24 223 148 223C148 217.72 148 212.44 148 207Z" fill="#326943"/>
<path d="M183.512 10.8769C184.64 10.8778 185.767 10.8787 186.929 10.8797C188.217 10.8783 189.506 10.8769 190.834 10.8755C192.275 10.879 193.717 10.8827 195.158 10.8864C196.666 10.8867 198.173 10.8865 199.681 10.8859C203.786 10.8857 207.891 10.8915 211.997 10.8985C216.282 10.9047 220.567 10.9054 224.853 10.9065C232.974 10.9097 241.095 10.9179 249.216 10.9279C258.458 10.9391 267.701 10.9446 276.944 10.9496C295.963 10.96 314.981 10.9784 334 10.9999C334 25.8499 334 40.6999 334 55.9999C329.38 55.9999 324.76 55.9999 320 55.9999C320 46.0999 320 36.1999 320 25.9999C274.13 25.9999 228.26 25.9999 181 25.9999C181 30.9499 181 35.8999 181 40.9999C170.44 40.9999 159.88 40.9999 149 40.9999C149 46.2799 149 51.5599 149 56.9999C143.72 56.9999 138.44 56.9999 133 56.9999C133 62.9399 133 68.8799 133 74.9999C128.38 74.9999 123.76 74.9999 119 74.9999C118.173 63.6327 117.881 52.3944 118 40.9999C123.28 40.9999 128.56 40.9999 134 40.9999C134 35.7199 134 30.4399 134 24.9999C149.18 24.9999 164.36 24.9999 180 24.9999C180 20.7099 180 16.4199 180 11.9999C181 10.9999 181 10.9999 183.512 10.8769Z" fill="#FBFCFC"/>
<path d="M290 172C290 201.37 290 230.74 290 261C284.06 261 278.12 261 272 261C272 266.94 272 272.88 272 279C256.16 279 240.32 279 224 279C224 265.8 224 252.6 224 239C235.88 238.67 247.76 238.34 260 238C260 227.77 260 217.54 260 207C263.96 207 267.92 207 272 207C271.995 205.975 271.99 204.951 271.984 203.895C271.966 200.106 271.955 196.317 271.945 192.529C271.94 190.886 271.933 189.244 271.925 187.602C271.912 185.246 271.907 182.891 271.902 180.535C271.897 179.797 271.892 179.058 271.887 178.297C271.887 176.531 271.938 174.765 272 173C276.249 168.751 283.991 172 290 172Z" fill="#F2BF99"/>
<path d="M134 224C138.62 224 143.24 224 148 224C148 242.15 148 260.3 148 279C184.63 279 221.26 279 259 279C259 284.28 259 289.56 259 295C222.04 295 185.08 295 147 295C147 304.9 147 314.8 147 325C143.04 325 139.08 325 135 325C133.634 305.179 133.883 285.329 133.931 265.473C133.942 260.786 133.946 256.099 133.951 251.412C133.962 242.275 133.979 233.137 134 224Z" fill="#010301"/>
<path d="M248 42C266.81 42 285.62 42 305 42C305 63.12 305 84.24 305 106C286.52 106 268.04 106 249 106C249 100.72 249 95.44 249 90C240.75 90 232.5 90 224 90C224 85.05 224 80.1 224 75C227.959 74.9463 231.916 74.9065 235.875 74.875C237.003 74.8582 238.131 74.8415 239.293 74.8242C240.369 74.8178 241.446 74.8113 242.555 74.8047C243.55 74.7942 244.545 74.7837 245.57 74.7729C248 75 248 75 250 77C250 81.29 250 85.58 250 90C267.82 90 285.64 90 304 90C304 79.11 304 68.22 304 57C299.71 57 295.42 57 291 57C291 62.94 291 68.88 291 75C280.11 75 269.22 75 258 75C258 68.73 258 62.46 258 56C255.03 56 252.06 56 249 56C248 52 248 52 248 42Z" fill="#65421F"/>
<path d="M260 279C263.96 279 267.92 279 272 279C272 289.56 272 300.12 272 311C241.64 311 211.28 311 180 311C180 315.62 180 320.24 180 325C169.44 325 158.88 325 148 325C148 315.43 148 305.86 148 296C184.96 296 221.92 296 260 296C260 290.39 260 284.78 260 279Z" fill="#306740"/>
<path d="M210 106C222.87 106 235.74 106 249 106C249 122.17 249 138.34 249 155C251.64 155 254.28 155 257 155C257 155.33 257 155.66 257 156C254.36 156 251.72 156 249 156C249 161.61 249 167.22 249 173C240.42 173 231.84 173 223 173C223 167.39 223 161.78 223 156C218.71 156 214.42 156 210 156C210 139.5 210 123 210 106Z" fill="#376F61"/>
<path d="M181 26C226.54 26 272.08 26 319 26C319 35.9 319 45.8 319 56C314.38 56 309.76 56 305 56C305 51.38 305 46.76 305 42C302.99 42.0079 302.99 42.0079 300.938 42.0159C271.119 42.121 241.315 41.9661 211.5 41.5C210.735 41.488 209.97 41.4761 209.181 41.4638C199.787 41.3163 190.394 41.1611 181 41C181 36.05 181 31.1 181 26Z" fill="#040503"/>
<path d="M290 173C294.95 173 299.9 173 305 173C305 189.83 305 206.66 305 224C317.54 224 330.08 224 343 224C343 228.95 343 233.9 343 239C337.72 239 332.44 239 327 239C327 249.23 327 259.46 327 270C324.36 270 321.72 270 319 270C319 266.7 319 263.4 319 260C314.05 260 309.1 260 304 260C304 253.07 304 246.14 304 239C299.71 239 295.42 239 291 239C291 246.26 291 253.52 291 261C290.67 261 290.34 261 290 261C290 231.96 290 202.92 290 173Z" fill="#58A76E"/>
<path d="M343 157C353.23 157 363.46 157 374 157C374 196.93 374 236.86 374 278C368.39 278 362.78 278 357 278C357 272.06 357 266.12 357 260C362.28 260 367.56 260 373 260C373 241.85 373 223.7 373 205C367.72 205 362.44 205 357 205C357 210.94 357 216.88 357 223C352.38 223 347.76 223 343 223C343 206.83 343 190.66 343 174C347.62 174 352.24 174 357 174C357.33 176.31 357.66 178.62 358 181C358 178.36 358 175.72 358 173C353.05 173 348.1 173 343 173C343 167.72 343 162.44 343 157Z" fill="#D99C7D"/>
<path d="M259 415C274.18 415 289.36 415 305 415C305 429.52 305 444.04 305 459C289.82 459 274.64 459 259 459C259 444.48 259 429.96 259 415Z" fill="#BE6D3B"/>
<path d="M306 173C317.88 173 329.76 173 342 173C342 189.83 342 206.66 342 224C330.12 224 318.24 224 306 224C306 207.17 306 190.34 306 173Z" fill="#FBFCFC"/>
<path d="M374 157C385.22 157 396.44 157 408 157C408 162.28 408 167.56 408 173C401.4 173 394.8 173 388 173C388 201.71 388 230.42 388 260C383.38 260 378.76 260 374 260C374 226.01 374 192.02 374 157Z" fill="#030302"/>
<path d="M166 106C170.62 106 175.24 106 180 106C180 128.11 180 150.22 180 173C175.71 173 171.42 173 167 173C167 167.39 167 161.78 167 156C160.73 156 154.46 156 148 156C148 144.12 148 132.24 148 120C153.94 120 159.88 120 166 120C166 115.38 166 110.76 166 106Z" fill="#DB9A7B"/>
<path d="M374 106C374 122.5 374 139 374 156C363.77 156 353.54 156 343 156C343 139.83 343 123.66 343 107C347.558 106.835 352.116 106.67 356.812 106.5C358.247 106.448 359.681 106.396 361.159 106.342C362.289 106.301 363.418 106.261 364.582 106.219C366.318 106.156 366.318 106.156 368.089 106.092C370.059 106.03 372.029 106 374 106Z" fill="#010201"/>
<path d="M305 90C317.54 90 330.08 90 343 90C343 95.28 343 100.56 343 106C352.24 106 361.48 106 371 106C371 106.33 371 106.66 371 107C361.76 107 352.52 107 343 107C343 123.17 343 139.34 343 156C333.43 156 323.86 156 314 156C314 139.83 314 123.66 314 107C323.488 106.407 332.558 105.882 342 106C342 101.05 342 96.1 342 91C329.79 91 317.58 91 305 91C305 90.67 305 90.34 305 90Z" fill="#357566"/>
<path d="M357 415C367.23 415 377.46 415 388 415C388 428.2 388 441.4 388 455C394.6 455 401.2 455 408 455C408 456.32 408 457.64 408 459C391.17 459 374.34 459 357 459C357 444.48 357 429.96 357 415Z" fill="#BD6B3B"/>
<path d="M272 135C277.94 135 283.88 135 290 135C290 141.93 290 148.86 290 156C294.95 156 299.9 156 305 156C305 161.28 305 166.56 305 172C308.854 171.983 308.854 171.983 312.785 171.965C315.327 171.957 317.869 171.951 320.411 171.945C322.152 171.94 323.893 171.933 325.633 171.925C336.473 171.871 347.194 172.093 358 173C358.495 178.445 358.495 178.445 359 184C357 182 357 182 356.805 180.055C356.87 178.036 356.935 176.018 357 174C352.38 174 347.76 174 343 174C343 190.17 343 206.34 343 223C347.62 223 352.24 223 357 223C357 228.28 357 233.56 357 239C352.38 239 347.76 239 343 239C341.828 225.182 341.886 211.423 341.938 197.562C341.943 195.174 341.947 192.785 341.951 190.396C341.961 184.598 341.981 178.799 342 173C330.12 173 318.24 173 306 173C306 189.83 306 206.66 306 224C305.67 224 305.34 224 305 224C305 207.17 305 190.34 305 173C294.11 173 283.22 173 272 173C272 160.46 272 147.92 272 135Z" fill="#C89277"/>
<path d="M180 311C210.36 311 240.72 311 272 311C272 315.62 272 320.24 272 325C241.64 325 211.28 325 180 325C180 320.38 180 315.76 180 311Z" fill="#020301"/>
<path d="M180 91C184.95 91 189.9 91 195 91C195 118.06 195 145.12 195 173C199.95 173 204.9 173 210 173C210 184.22 210 195.44 210 207C200.43 207 190.86 207 181 207C181 195.78 181 184.56 181 173C185.29 173 189.58 173 194 173C194 150.89 194 128.78 194 106C189.38 106 184.76 106 180 106C180 101.05 180 96.1 180 91Z" fill="#D69878"/>
<path d="M181 375C190.9 375 200.8 375 211 375C211 388.53 211 402.06 211 416C201.1 416 191.2 416 181 416C181 402.47 181 388.94 181 375Z" fill="#BD6B3A"/>
<path d="M272 261C277.94 261 283.88 261 290 261C290 281.79 290 302.58 290 324C284.06 324 278.12 324 272 324C272 303.21 272 282.42 272 261Z" fill="#8B5A30"/>
<path d="M194 224C207.53 224 221.06 224 235 224C235 228.62 235 233.24 235 238C239.62 238 244.24 238 249 238C249 238.33 249 238.66 249 239C240.75 239 232.5 239 224 239C224 251.87 224 264.74 224 278C223.67 278 223.34 278 223 278C223 272.06 223 266.12 223 260C218.05 260 213.1 260 208 260C208 253.4 208 246.8 208 240C203.38 240 198.76 240 194 240C194 234.72 194 229.44 194 224Z" fill="#58A46D"/>
<path d="M181 107C185.29 107 189.58 107 194 107C194 128.45 194 149.9 194 172C189.71 172 185.42 172 181 172C181 150.55 181 129.1 181 107Z" fill="#010301"/>
<path d="M119 76C125.93 76.495 125.93 76.495 133 77C133 96.47 133 115.94 133 136C128.38 136 123.76 136 119 136C119 116.2 119 96.4 119 76Z" fill="#2F1C0A"/>
<path d="M248 42C266.81 42 285.62 42 305 42C305 46.62 305 51.24 305 56C305 56 285.321 56.0303 275.5 56C266.428 55.9764 249 56 248 56V42Z" fill="#7A5127"/>
<path d="M358 279C358 284.28 358 289.56 358 295C340.84 295 323.68 295 306 295C306 290.05 306 285.1 306 280C323.345 278.917 340.63 278.899 358 279Z" fill="#040504"/>
<path d="M224 75C227.959 74.9463 231.916 74.9065 235.875 74.875C237.003 74.8582 238.131 74.8415 239.293 74.8242C240.369 74.8178 241.446 74.8113 242.555 74.8047C243.55 74.7942 244.545 74.7837 245.57 74.7729C248 75 248 75 250 77C250.279 81.344 250.085 85.6435 250 90C257.59 90 265.18 90 273 90C273 95.28 273 100.56 273 106C265.08 106 257.16 106 249 106C249 100.72 249 95.44 249 90C240.75 90 232.5 90 224 90C224 85.05 224 80.1 224 75Z" fill="#D09272"/>
<path d="M390 106C396.27 106 402.54 106 409 106C409 119.53 409 133.06 409 147C405.04 147 401.08 147 397 147C397 143.7 397 140.4 397 137C393.7 137 390.4 137 387 137C387 131.39 387 125.78 387 120C387.99 119.67 388.98 119.34 390 119C390 114.71 390 110.42 390 106Z" fill="#97DCC5"/>
<path d="M260 279C263.96 279 267.92 279 272 279C272 289.23 272 299.46 272 310C259.79 310 247.58 310 235 310C235 305.38 235 300.76 235 296C243.25 296 251.5 296 260 296C260 290.39 260 284.78 260 279Z" fill="#56A56C"/>
<path d="M291 173C295.62 173 300.24 173 305 173C305 189.83 305 206.66 305 224C300.38 224 295.76 224 291 224C291 207.17 291 190.34 291 173Z" fill="#020402"/>
<path d="M291 57C295.29 57 299.58 57 304 57C304 67.89 304 78.78 304 90C293.44 90 282.88 90 272 90C272 85.05 272 80.1 272 75C278.27 75 284.54 75 291 75C291 69.06 291 63.12 291 57Z" fill="#030301"/>
<path d="M409 106C413.62 106 418.24 106 423 106C423 122.5 423 139 423 156C418.38 156 413.76 156 409 156C409 139.5 409 123 409 106Z" fill="#020504"/>
<path d="M343 174C347.62 174 352.24 174 357 174C358.269 184.272 357.9 194.373 357.562 204.688C357.509 206.468 357.456 208.249 357.404 210.029C357.276 214.353 357.14 218.677 357 223C352.38 223 347.76 223 343 223C343 206.83 343 190.66 343 174Z" fill="#030402"/>
<path d="M306 173C317.88 173 329.76 173 342 173C342 179.27 342 185.54 342 192C330.12 192 318.24 192 306 192C306 185.73 306 179.46 306 173Z" fill="#FDFDFD"/>
<path d="M374 261C378.95 261 383.9 261 389 261C389 266.94 389 272.88 389 279C384.05 279 379.1 279 374 279C374 284.28 374 289.56 374 295C367.917 295.869 364.747 295.907 359 295C359 299.95 359 304.9 359 310C368.57 310 378.14 310 388 310C388 310.33 388 310.66 388 311C378.1 311 368.2 311 358 311C358 306.05 358 301.1 358 296C340.84 296 323.68 296 306 296C306 295.67 306 295.34 306 295C323.16 295 340.32 295 358 295C358 289.39 358 283.78 358 278C363.28 278 368.56 278 374 278C374 272.39 374 266.78 374 261Z" fill="#CBD8E1"/>
<path d="M210 106C214.29 106 218.58 106 223 106C223 122.17 223 138.34 223 155C218.71 155 214.42 155 210 155C210 138.83 210 122.66 210 106Z" fill="#020302"/>
<path d="M331 107C334.63 107 338.26 107 342 107C342 120.53 342 134.06 342 148C338.7 148 335.4 148 332 148C332 144.37 332 140.74 332 137C328.7 137 325.4 137 322 137C322 131.06 322 125.12 322 119C324.97 119 327.94 119 331 119C331 115.04 331 111.08 331 107Z" fill="#9BE0C6"/>
<path d="M327 239C331.95 239 336.9 239 342 239C342 246.59 342 254.18 342 262C340.68 262 339.36 262 338 262C338 267.61 338 273.22 338 279C327.021 280.331 316.04 280.095 305 280C305 279.34 305 278.68 305 278C312.26 278 319.52 278 327 278C327 265.13 327 252.26 327 239Z" fill="#D49C7E"/>
<path d="M305 224C317.54 224 330.08 224 343 224C343 228.95 343 233.9 343 239C330.46 239 317.92 239 305 239C305 234.05 305 229.1 305 224Z" fill="#070907"/>
<path d="M374 91C385.55 91 397.1 91 409 91C409 95.95 409 100.9 409 106C397.45 106 385.9 106 374 106C374 101.05 374 96.1 374 91Z" fill="#020302"/>
<path d="M224 239C227.96 239 231.92 239 236 239C236 251.87 236 264.74 236 278C243.92 278 251.84 278 260 278C260 278.33 260 278.66 260 279C248.12 279 236.24 279 224 279C224 265.8 224 252.6 224 239Z" fill="#E09A7C"/>
<path d="M306 192C317.88 192 329.76 192 342 192C342 196.62 342 201.24 342 206C330.12 206 318.24 206 306 206C306 201.38 306 196.76 306 192Z" fill="#C7D9E3"/>
<path d="M223 190C231.58 190 240.16 190 249 190C249 195.61 249 201.22 249 207C240.42 207 231.84 207 223 207C223 201.39 223 195.78 223 190Z" fill="#D35F5A"/>
<path d="M291 295C295.62 295 300.24 295 305 295C305 304.9 305 314.8 305 325C300.38 325 295.76 325 291 325C291 315.1 291 305.2 291 295Z" fill="#020302"/>
<path d="M224 156C231.92 156 239.84 156 248 156C248 161.28 248 166.56 248 172C240.08 172 232.16 172 224 172C224 166.72 224 161.44 224 156Z" fill="#010303"/>
<path d="M223 90C231.25 90 240.5 90 249 90C249 94.95 249 100.9 249 106C240.75 106 231.5 106 223 106C223 101.05 223 95.1 223 90Z" fill="#020302"/>
<path d="M390 106C396.27 106 402.54 106 409 106C409 113.59 409 121.18 409 129C405.37 128.67 401.74 128.34 398 128C397.67 125.36 397.34 122.72 397 120C394.69 119.67 392.38 119.34 390 119C390 114.71 390 110.42 390 106Z" fill="#6DC8A2"/>
<path d="M223 106C231.25 106 240.5 106 249 106C249 110.62 249 115.24 249 120C240.75 120 231.5 120 223 120C223 115.38 223 110.76 223 106Z" fill="#6DCDA4"/>
<path d="M290 173C290.33 173 290.66 173 291 173C291 189.83 291 206.66 291 224C295.62 224 300.24 224 305 224C305 235.55 305 247.1 305 259C309.62 259 314.24 259 319 259C319 259.33 319 259.66 319 260C314.05 260 309.1 260 304 260C304 253.07 304 246.14 304 239C299.71 239 295.42 239 291 239C291 246.26 291 253.52 291 261C290.67 261 290.34 261 290 261C290 231.96 290 202.92 290 173Z" fill="#5A9665"/>
<path d="M284 91C290.93 91 297.86 91 305 91C305 95.95 305 100.9 305 106C298.07 106 291.14 106 284 106C284 101.05 284 96.1 284 91Z" fill="#D89775"/>
<path d="M225 76C232.92 76 240.84 76 249 76C249 80.29 249 84.58 249 89C241.08 89 233.16 89 225 89C225 84.71 225 80.42 225 76Z" fill="#E6A180"/>
<path d="M149 120C154.61 120 160.22 120 166 120C166 125.61 166 131.22 166 137C160.39 137 154.78 137 149 137C149 131.39 149 125.78 149 120Z" fill="#F3C099"/>
<path d="M209 90C213.62 90 218.24 90 223 90C223 95.28 223 100.56 223 106C218.71 106 214.42 106 210 106C210 122.5 210 139 210 156C209.67 156 209.34 156 209 156C209 134.22 209 112.44 209 90Z" fill="#DDB28E"/>
<path d="M357 261C362.28 261 367.56 261 373 261C373 266.61 373 272.22 373 278C367.72 278 362.44 278 357 278C357 272.39 357 266.78 357 261Z" fill="#0B0907"/>
<path d="M290 56C294.95 56 299.9 56 305 56C305 67.55 305 79.1 305 91C298.07 91 291.14 91 284 91C284 95.95 284 100.9 284 106C280.37 106 276.74 106 273 106C273 100.72 273 95.44 273 90C283.23 90 293.46 90 304 90C304 79.11 304 68.22 304 57C299.71 57 295.42 57 291 57C291 62.94 291 68.88 291 75C290.67 75 290.34 75 290 75C290 68.73 290 62.46 290 56Z" fill="#3B2712"/>
<path d="M180 12C180.33 12 180.66 12 181 12C181 16.29 181 20.58 181 25C226.87 25 272.74 25 320 25C320 25.33 320 25.66 320 26C274.13 26 228.26 26 181 26C181 30.95 181 35.9 181 41C170.44 41 159.88 41 149 41C149 40.67 149 40.34 149 40C159.23 40 169.46 40 180 40C180 35.38 180 30.76 180 26C164.82 26 149.64 26 134 26C134 25.67 134 25.34 134 25C149.18 25 164.36 25 180 25C180 20.71 180 16.42 180 12Z" fill="#ECEEEE"/>
<path d="M374 261C378.62 261 383.24 261 388 261C388 266.61 388 272.22 388 278C383.38 278 378.76 278 374 278C374 272.39 374 266.78 374 261Z" fill="#FDFDFD"/>
<path d="M149 42C154.61 42 160.22 42 166 42C166 46.62 166 51.24 166 56C160.39 56 154.78 56 149 56C149 51.38 149 46.76 149 42Z" fill="#020300"/>
<path d="M331 107C334.63 107 338.26 107 342 107C342 113.93 342 120.86 342 128C339.36 128 336.72 128 334 128C334 125.36 334 122.72 334 120C330.37 120 326.74 120 323 120C323 125.61 323 131.22 323 137C322.67 137 322.34 137 322 137C322 131.06 322 125.12 322 119C324.97 119 327.94 119 331 119C331 115.04 331 111.08 331 107Z" fill="#72D0A9"/>
<path d="M352.25 222.938C353.817 222.958 355.385 222.979 357 223C357 228.28 357 233.56 357 239C352.38 239 347.76 239 343 239C343 234.05 343 229.1 343 224C346.409 223.148 348.804 222.892 352.25 222.938Z" fill="#DF9C7C"/>
<path d="M181 91C185.29 91 189.58 91 194 91C194 95.62 194 100.24 194 105C189.71 105 185.42 105 181 105C181 100.38 181 95.76 181 91Z" fill="#DF9E7C"/>
<path d="M259 207C259.33 207 259.66 207 260 207C260 217.23 260 227.46 260 238C256.37 238 252.74 238 249 238C248.973 235.854 248.954 233.708 248.938 231.562C248.926 230.368 248.914 229.173 248.902 227.941C249 225 249 225 250 224C253.003 223.858 255.992 223.958 259 224C259 218.39 259 212.78 259 207Z" fill="#4E8757"/>
<path d="M305 90C317.54 90 330.08 90 343 90C343 95.28 343 100.56 343 106C352.24 106 361.48 106 371 106C371 106.33 371 106.66 371 107C361.76 107 352.52 107 343 107C343 120.86 343 134.72 343 149C339.37 149 335.74 149 332 149C332 148.67 332 148.34 332 148C335.3 148 338.6 148 342 148C342 134.47 342 120.94 342 107C338.37 107 334.74 107 331 107C331 110.96 331 114.92 331 119C330.67 119 330.34 119 330 119C330 114.71 330 110.42 330 106C333.96 106 337.92 106 342 106C342 101.05 342 96.1 342 91C329.79 91 317.58 91 305 91C305 90.67 305 90.34 305 90Z" fill="#6A8B7E"/>
<rect x="305" y="277" width="22" height="3" fill="#3B6D48"/>
</g>
<defs>
<clipPath id="clip0_723_165">
<rect width="505" height="470" fill="white"/>
</clipPath>
</defs>
</svg>
